<?xml version="1.0"?>
<svg xmlns="http://www.w3.org/2000/svg" xmlns:xlink="http://www.w3.org/1999/xlink" xmlns:svgjs="http://svgjs.com/svgjs" version="1.1" width="512" height="512" x="0" y="0" viewBox="0 0 512 512" style="enable-background:new 0 0 512 512" xml:space="preserve" class=""><g><g xmlns="http://www.w3.org/2000/svg"><path d="m432 288v128c0 53.119-42.881 96-96 96-33.279 0-62.721-17.279-80-43.199-17.279 25.92-46.721 43.199-80 43.199-53.119 0-96-42.881-96-96v-128l64 96h-32v32c0 35.199 28.801 64 64 64s64-28.801 64-64v-130.881c-18.561-6.719-32-24.318-32-45.119s13.439-38.721 32-45.119h32c18.561 6.398 32 24.318 32 45.119s-13.439 38.4-32 45.119v130.881c0 35.199 28.801 64 64 64s64-28.801 64-64v-32h-32z" fill="#6c63ff" data-original="#c8fa64" style="" class=""/><path d="m240 96h-64c-17.674 0-32-14.326-32-32s14.326-32 32-32h32c17.674 0 32 14.326 32 32zm163.84 28.16c-17.279-17.279-41.279-28.16-67.84-28.16h-64v-32c0-35.199-28.801-64-64-64h-28.48c-32 0-61.439 21.76-66.559 53.119-6.721 40.32 24.318 74.881 63.039 74.881h64v66.881h32v-66.881h64c35.199 0 64 28.801 64 64h32c0-26.561-10.881-50.561-28.16-67.84z" fill="#534cc7" data-original="#4de600" style="" class=""/><path d="m272 194.881v45.119h-32v-45.119c5.119-1.92 10.24-2.881 16-2.881s10.881.961 16 2.881z" fill="#6c63ff" data-original="#00cc00" style="" class=""/></g></g></svg>
